<?xml version="1.0" standalone="no"?>
<!DOCTYPE svg PUBLIC "-//W3C//DTD SVG 20010904//EN"
 "http://www.w3.org/TR/2001/REC-SVG-20010904/DTD/svg10.dtd">
<svg version="1.0" xmlns="http://www.w3.org/2000/svg"
 width="240.000000pt" height="240.000000pt" viewBox="0 0 240.000000 240.000000"
 preserveAspectRatio="xMidYMid meet">
<metadata>
Created by potrace 1.14, written by Peter Selinger 2001-2017
</metadata>
<g transform="translate(0.000000,240.000000) scale(0.100000,-0.100000)"
fill="#000000" stroke="none">
<path d="M1475 1643 c-120 -26 -232 -159 -239 -282 -1 -22 1 -46 5 -52 4 -8
-80 -100 -227 -246 -129 -129 -234 -237 -234 -241 0 -4 14 -22 31 -40 36 -40
9 -60 226 159 87 87 162 159 166 159 4 0 87 -79 184 -176 l175 -176 36 36 c19
20 32 40 28 44 -3 4 -83 84 -178 179 -166 167 -171 173 -154 192 14 15 28 18
67 16 77 -4 144 22 204 80 62 60 79 86 98 151 39 136 -48 228 -188 197z"/>
<path d="M771 1591 c-40 -95 -23 -170 60 -253 27 -27 46 -54 43 -60 -4 -6 -2
-8 4 -4 6 3 35 -19 66 -50 30 -31 59 -55 64 -53 11 4 96 83 125 116 17 20 14
24 -148 184 -91 90 -171 165 -179 167 -8 2 -22 -17 -35 -47z"/>
<path d="M475 1601 c-3 -5 -2 -12 3 -15 5 -3 9 1 9 9 0 17 -3 19 -12 6z"/>
</g>
</svg>
